<mxfile host="app.diagrams.net" modified="2024-05-14T05:33:43.336Z" agent="Mozilla/5.0 (Windows NT 10.0; Win64; x64) AppleWebKit/537.36 (KHTML, like Gecko) Chrome/124.0.0.0 Safari/537.36" version="24.4.0" etag="EmgTrTWODha7mm9H1CQA" type="github">
  <diagram name="Page-1" id="j_n--VPLly-2CjY0Hsq4">
    <mxGraphModel>
      <root>
        <mxCell id="0" />
        <mxCell id="1" parent="0" />
      </root>
    </mxGraphModel>
  </diagram>
</mxfile>
